HIERARCHY
ROOT SimulationBone
{
	OFFSET 0.000000 0.000000 0.000000
	CHANNELS 6 Xposition Yposition Zposition Zrotation Yrotation Xrotation 
	JOINT Hips
	{
		OFFSET 0.000000 0.000000 0.000000
		CHANNELS 6 Xposition Yposition Zposition Zrotation Yrotation Xrotation 
		JOINT RightUpLeg
		{
			OFFSET 0.103459 1.857829 10.548508
			CHANNELS 3 Zrotation Yrotation Xrotation
			JOINT RightLeg
			{
				OFFSET 43.500000 -0.000031 -0.000004
				CHANNELS 3 Zrotation Yrotation Xrotation
				JOINT RightFoot
				{
					OFFSET 42.372200 0.000019 0.000005
					CHANNELS 3 Zrotation Yrotation Xrotation
					JOINT RightToe
					{
						OFFSET 17.299999 -0.000000 -0.000005
						CHANNELS 3 Zrotation Yrotation Xrotation
						End Site
						{
							OFFSET 0.000000 0.000000 0.000000
						}
					}
				}
			}
		}
		JOINT LeftUpLeg
		{
			OFFSET 0.103458 1.857828 -10.548506
			CHANNELS 3 Zrotation Yrotation Xrotation
			JOINT LeftLeg
			{
				OFFSET 43.500042 -0.000023 0.000011
				CHANNELS 3 Zrotation Yrotation Xrotation
				JOINT LeftFoot
				{
					OFFSET 42.372261 -0.000008 0.000008
					CHANNELS 3 Zrotation Yrotation Xrotation
					JOINT LeftToe
					{
						OFFSET 17.299994 -0.000005 0.000010
						CHANNELS 3 Zrotation Yrotation Xrotation
						End Site
						{
							OFFSET 0.000000 0.000000 0.000000
						}
					}
				}
			}
		}
		JOINT Spine
		{
			OFFSET 6.901963 -2.603731 0.000002
			CHANNELS 3 Zrotation Yrotation Xrotation
			JOINT Spine1
			{
				OFFSET 12.588100 0.000001 -0.000005
				CHANNELS 3 Zrotation Yrotation Xrotation
				JOINT Spine2
				{
					OFFSET 12.343208 0.000002 0.000006
					CHANNELS 3 Zrotation Yrotation Xrotation
					JOINT Neck
					{
						OFFSET 25.832893 -0.000004 -0.000005
						CHANNELS 3 Zrotation Yrotation Xrotation
						JOINT Head
						{
							OFFSET 11.766604 0.000010 0.000000
							CHANNELS 3 Zrotation Yrotation Xrotation
							End Site
							{
								OFFSET 0.000000 0.000000 0.000000
							}
						}
					}
					JOINT RightShoulder
					{
						OFFSET 19.745903 -1.480368 6.000098
						CHANNELS 3 Zrotation Yrotation Xrotation
						JOINT RightArm
						{
							OFFSET 11.284134 -0.000007 -0.000016
							CHANNELS 3 Zrotation Yrotation Xrotation
							JOINT RightForeArm
							{
								OFFSET 33.000050 0.000005 0.000015
								CHANNELS 3 Zrotation Yrotation Xrotation
								JOINT RightHand
								{
									OFFSET 25.200003 0.000014 0.000010
									CHANNELS 3 Zrotation Yrotation Xrotation
									End Site
									{
										OFFSET 0.000000 0.000000 0.000000
									}
								}
							}
						}
					}
					JOINT LeftShoulder
					{
						OFFSET 19.746094 -1.480373 -6.000076
						CHANNELS 3 Zrotation Yrotation Xrotation
						JOINT LeftArm
						{
							OFFSET 11.284140 -0.000016 -0.000005
							CHANNELS 3 Zrotation Yrotation Xrotation
							JOINT LeftForeArm
							{
								OFFSET 33.000092 0.000015 0.000005
								CHANNELS 3 Zrotation Yrotation Xrotation
								JOINT LeftHand
								{
									OFFSET 25.199781 0.000140 0.000422
									CHANNELS 3 Zrotation Yrotation Xrotation
									End Site
									{
										OFFSET 0.000000 0.000000 0.000000
									}
								}
							}
						}
					}
				}
			}
		}
	}
}
MOTION
Frames: 14
Frame Time: 0.033333
80.677156 0.000000 -75.717338 0.000000 -44.102534 0.000000 -1.563102 90.766373 -2.298817 94.740726 -1.050034 -179.312296 -179.909560 -14.024596 170.487969 -36.334503 -1.459579 -16.408549 70.287913 8.085271 -11.859208 21.454557 0.003109 0.000018 169.808557 6.976695 -161.523756 -26.517158 1.357422 7.612525 82.669181 -4.822837 2.506862 21.454550 -0.003100 -0.000002 9.445824 1.431122 -2.094626 8.828137 3.017736 -4.075304 8.510449 2.992958 -4.093432 4.798882 -10.875618 -9.202923 -20.098270 5.677468 -14.395698 111.158153 -76.425910 68.453249 -50.651290 46.860572 -52.918906 -96.564456 0.388864 2.613733 0.867686 -30.532124 9.095602 178.692324 75.993689 0.064265 -6.524730 -56.916615 -17.953557 -88.916810 1.794052 -2.382844 3.381539 21.310911 -5.576419 
80.318408 0.000000 -74.866223 0.000000 -44.621560 0.000000 -0.933704 90.942421 -2.169141 94.850489 -1.263052 -179.068706 178.733237 -13.938003 171.465424 -38.670625 -1.550925 -18.415431 67.262371 9.613563 -10.976931 21.454560 0.003108 0.000015 170.805532 6.247101 -162.283027 -25.909983 1.464940 8.016046 83.280824 -5.159709 2.260557 21.454555 -0.003075 0.000002 9.426307 1.524332 -2.174665 8.783897 3.209207 -4.228925 8.466199 3.183500 -4.248204 4.652406 -10.034430 -9.062791 -20.017645 5.013015 -13.790516 115.119533 -76.556203 64.463708 -46.227373 51.684212 -47.165168 -94.851308 -0.104194 2.571346 0.609400 -30.456541 9.088974 -178.436998 75.418211 2.990423 -2.689411 -56.254271 -21.256787 -88.534449 1.832586 -2.368649 3.523001 21.090892 -5.490109 
80.076284 0.000000 -74.014251 0.000000 -45.173830 0.000000 -0.425187 91.025978 -2.041515 95.040470 -1.305845 -179.028680 177.359235 -13.958502 172.370410 -41.247232 -1.872513 -20.537827 65.210172 11.766390 -8.901815 21.454557 0.003109 0.000017 171.726542 5.434198 -163.396416 -25.495711 1.703176 8.469472 83.927234 -5.537954 1.968977 21.454551 -0.003092 0.000000 9.448513 1.626082 -2.198066 8.824426 3.414893 -4.267540 8.506687 3.388947 -4.288053 4.356307 -9.594242 -8.985992 -19.905067 4.677811 -13.483651 118.407804 -76.586508 61.155041 -41.262430 56.094045 -41.028397 -93.251903 -0.567383 2.532039 -0.198664 -31.057932 10.565597 -175.514620 75.305172 5.981785 -0.511793 -55.781660 -22.974347 -88.401991 1.863770 -2.364979 3.615364 20.568790 -5.399665 
79.946688 0.000000 -73.160474 0.000000 -45.758517 0.000000 -0.075717 90.974007 -1.951249 95.277749 -1.062350 -178.969979 175.785819 -14.197997 173.025726 -44.290809 -1.862319 -21.678626 64.677623 13.465881 -6.369808 21.454558 0.003107 0.000016 172.510976 4.487897 -164.314940 -25.376279 1.915897 8.804250 84.631699 -5.829993 1.659602 21.454553 -0.003086 0.000000 9.497877 1.761947 -2.215527 8.918324 3.689264 -4.290779 8.600498 3.663172 -4.312961 3.752400 -9.249541 -8.820610 -19.495990 4.285295 -13.084145 120.771214 -76.685368 58.767378 -35.697656 60.074219 -34.713627 -92.407719 -0.794022 2.510073 0.415505 -31.644208 9.753335 -173.174296 75.187802 8.378315 -0.194801 -55.189496 -22.854260 -88.364124 1.841640 -2.361767 4.088433 20.024653 -4.903156 
79.925526 0.000000 -72.303942 0.000000 -46.374898 0.000000 0.132123 90.893288 -1.886143 95.522635 -0.840228 -179.111028 174.292412 -14.365092 173.881617 -47.574573 -1.873526 -20.667273 66.189437 12.803498 -6.245796 21.454555 0.003110 0.000018 173.180157 3.656100 -165.305591 -25.373430 2.133849 9.028218 85.309336 -6.043976 1.330904 21.454550 -0.003092 0.000001 9.530685 1.837611 -2.170238 8.983187 3.838018 -4.193489 8.665250 3.812511 -4.216567 4.004615 -8.871799 -8.750491 -19.633281 3.933196 -12.775232 122.993976 -76.765773 56.521093 -29.170812 63.302596 -27.116100 -91.526598 -1.025241 2.486815 2.446965 -32.086818 7.985400 -171.553684 74.833964 10.036698 -1.075768 -54.432708 -21.410042 -88.263085 1.862074 -2.357000 4.863677 19.286467 -4.946697 
80.008702 0.000000 -71.443706 0.000000 -47.022326 0.000000 0.225798 90.785698 -1.856081 95.810068 -0.635679 -179.265864 172.843592 -14.419404 175.382647 -50.694917 -2.250541 -16.669413 69.693700 9.674625 -7.315908 21.454567 0.003110 0.000014 173.841032 3.006305 -166.118711 -25.481095 2.401387 9.090807 86.000975 -6.141762 1.009374 21.454557 -0.003079 0.000001 9.583648 1.894653 -2.069001 9.091065 3.945869 -3.984981 8.773013 3.921614 -4.008723 4.263859 -9.163425 -8.746885 -19.615815 4.034773 -12.866628 125.908732 -76.813141 53.578586 -22.190634 65.507771 -18.840787 -90.326199 -1.310933 2.453175 2.708361 -32.442541 8.236831 -170.618289 74.662703 10.995120 -2.841382 -54.098862 -18.625603 -88.016932 1.952657 -2.354205 5.128053 18.190069 -5.486763 
80.192120 0.000000 -70.578817 0.000000 -47.700216 0.000000 0.240960 90.644203 -1.830814 96.128820 -0.372942 -179.443292 171.141113 -14.150205 176.992400 -53.435281 -2.615705 -12.870808 72.834248 6.766436 -8.388715 21.454563 0.003112 0.000016 174.489231 2.366202 -166.649786 -25.689914 2.524599 8.961736 86.714436 -6.083510 0.787725 21.454555 -0.003095 0.000000 9.663230 1.954748 -1.918344 9.254181 4.056554 -3.676354 8.935960 4.034148 -3.700779 4.233648 -9.665552 -8.600565 -19.349975 4.248713 -12.906821 123.346905 -76.954246 56.148496 -13.948783 67.532635 -9.508386 -89.359952 -1.624486 2.432006 4.408569 -32.368161 8.242494 -170.532775 74.631080 11.082587 -5.238181 -53.957388 -15.078221 -87.935223 2.070572 -2.358838 5.403594 17.985722 -6.279823 
80.471684 0.000000 -69.708327 0.000000 -48.408027 0.000000 0.190385 90.545723 -1.819562 96.342137 -0.230529 -179.699859 169.179524 -13.308596 178.274344 -55.232653 -2.765827 -11.680666 74.261969 5.386303 -10.571250 21.454558 0.003108 0.000018 175.114671 1.985199 -166.965928 -25.787881 2.687839 8.605146 87.364383 -5.875097 0.533013 21.454551 -0.003091 0.000000 9.734559 1.969072 -1.742659 9.403043 4.073124 -3.321468 9.084671 4.052863 -3.346019 4.136544 -10.470173 -8.370154 -19.095566 4.662638 -13.016791 123.335567 -77.509294 56.109454 -5.192216 68.186181 1.354147 -88.779011 -1.714069 2.412398 6.952419 -32.060153 6.006556 -171.444852 74.771508 10.147971 -8.049355 -54.044118 -10.899437 -87.873608 2.188920 -2.364390 5.752653 18.128886 -6.816391 
80.843299 0.000000 -68.831285 0.000000 -49.145249 0.000000 0.063406 90.480598 -1.816981 96.469444 -0.213704 179.933402 167.208167 -12.125105 179.172992 -55.881838 -2.947741 -12.407022 75.505822 5.754492 -11.561307 21.454555 0.003107 0.000018 175.669624 1.830404 -167.193100 -25.853632 2.848219 8.087955 87.953575 -5.561782 0.252544 21.454553 -0.003086 -0.000001 9.807656 1.941839 -1.540137 9.557221 4.004177 -2.916224 9.238733 3.986363 -2.940365 4.040319 -11.548601 -8.076940 -19.005667 5.204540 -13.191126 125.079028 -77.825860 54.324371 4.033391 67.514719 12.567603 -88.555882 -1.745427 2.404669 9.602705 -30.744082 5.371762 -172.573732 75.125401 8.993285 -11.570892 -54.298836 -6.035864 -87.790061 2.352331 -2.372128 5.986226 17.630168 -7.029935 
81.302870 0.000000 -67.946742 0.000000 -49.911388 0.000000 -0.123704 90.467613 -1.810200 96.497198 -0.317899 179.419284 165.273420 -10.817309 179.527656 -55.463291 -2.835803 -13.600717 76.318451 6.580428 -11.987530 21.454551 0.003106 0.000019 176.136167 1.780699 -167.595876 -25.833085 2.905902 7.569725 88.432037 -5.240411 0.016882 21.454550 -0.003087 0.000000 9.875718 1.875974 -1.298528 9.703033 3.854163 -2.436400 9.384466 3.839246 -2.459648 3.957453 -12.538282 -7.805480 -19.069707 5.718097 -13.367690 126.387268 -78.026940 52.987925 12.963980 66.219647 22.938485 -88.219782 -1.850576 2.397080 10.505502 -28.071852 8.950854 -173.895032 75.440129 7.642510 -15.425637 -54.319139 -1.021254 -87.760062 2.498822 -2.381037 6.581465 17.094099 -7.941337 
81.846301 0.000000 -67.053751 0.000000 -50.705954 0.000000 -0.339411 90.428360 -1.809740 96.452435 -0.313003 178.922712 163.359315 -9.684201 179.945760 -54.025966 -2.643838 -14.305788 76.917950 7.198741 -11.784165 21.454565 0.003114 0.000012 176.546497 1.641700 -168.573713 -25.772657 3.115315 7.360014 88.871136 -5.114315 -0.122647 21.454551 -0.003084 0.000002 9.946105 1.813789 -1.046962 9.853090 3.710103 -1.936534 9.534457 3.698211 -1.958932 3.760877 -13.219506 -7.566060 -19.150484 6.099077 -13.464506 127.700550 -78.197784 51.648825 20.942470 64.301682 32.174327 -88.094209 -1.964703 2.399469 11.604231 -24.485154 13.895802 -175.291300 75.658661 6.215044 -19.599508 -53.986112 3.702633 -87.374696 2.899421 -2.392037 7.184030 16.385854 -9.471017 
82.469496 0.000000 -66.151360 0.000000 -51.528447 0.000000 -0.554331 90.413116 -1.810172 96.387468 -0.343159 178.452916 161.837849 -8.771894 -179.039216 -51.194354 -2.778148 -13.847189 76.916065 6.839396 -11.975271 21.454558 0.003106 0.000019 177.025225 1.615905 -169.442144 -25.604306 3.304055 7.082403 89.256113 -4.935951 -0.219677 21.454551 -0.003100 -0.000001 10.021797 1.730786 -0.790322 10.013442 3.523440 -1.428454 9.694793 3.514616 -1.449731 3.423083 -13.636350 -7.408944 -19.066311 6.302287 -13.513886 129.296205 -78.264242 50.033844 27.383109 61.668965 39.759907 -88.667187 -1.981084 2.426089 14.382083 -20.083956 18.188937 -176.773929 75.938159 4.701422 -23.519300 -53.478486 7.836955 -86.786009 3.381095 -2.399768 7.888884 15.388384 -10.085518 
83.168360 0.000000 -65.238622 0.000000 -52.378350 0.000000 -0.739427 90.340897 -1.775772 96.301593 -0.197116 178.046813 160.700991 -8.214493 -177.284035 -47.228781 -3.158819 -12.820044 76.740379 5.948526 -12.592629 21.454562 0.003114 0.000017 177.546792 1.459190 -170.185351 -25.493029 3.474552 6.739249 89.722553 -4.712777 -0.327846 21.454553 -0.003089 0.000000 10.093274 1.675543 -0.516487 10.165020 3.389952 -0.884052 9.846353 3.384427 -0.904540 2.920136 -13.976094 -7.312984 -18.820675 6.500948 -13.609932 130.896027 -78.335597 48.413614 32.938133 58.612107 46.333630 -89.963038 -1.800472 2.471196 17.190490 -16.794493 19.276699 -178.132877 76.376528 3.318732 -26.861831 -52.981060 11.160014 -86.235305 3.851882 -2.408437 8.265178 14.729653 -10.826639 
83.938797 0.000000 -64.314587 0.000000 -53.255114 0.000000 -0.898393 90.270477 -1.696749 96.125898 -0.017235 177.664809 159.923907 -7.828796 -175.218914 -42.160196 -3.452440 -11.697756 76.544530 5.129008 -12.649918 21.454560 0.003111 0.000018 178.070545 1.282497 -170.987611 -25.312860 3.647235 6.431266 90.196732 -4.509562 -0.408162 21.454550 -0.003096 -0.000002 10.133988 1.615628 -0.232648 10.254674 3.245492 -0.321229 9.936023 3.243361 -0.340854 2.480707 -14.490253 -7.206971 -18.608068 6.942139 -13.831975 132.350187 -78.598409 46.923546 37.788950 55.469486 52.596807 -91.495507 -1.568944 2.523437 17.626999 -18.199271 16.950759 179.765934 76.829069 1.180001 -28.914031 -52.659474 13.812520 -86.025440 4.060177 -2.413758 9.049931 13.659430 -11.383000 
